<?xml version="1.0" encoding="UTF-8"?><svg id="Layer_1" xmlns="http://www.w3.org/2000/svg" viewBox="0 0 120 40"><defs><style>.cls-1{fill:#00b26b;}.cls-2{fill:#ffcb05;}.cls-3{fill:#ebbe1e;}.cls-4{fill:#72bf44;}.cls-5{fill:#d3a809;}.cls-6{fill:#d91880;}.cls-7{fill:#a9348a;}.cls-8{fill:#231f20;}.cls-9{fill:#583f99;}.cls-10{fill:#fff;font-family:MuktaMahee-Medium, 'Mukta Mahee';font-size:3.19px;}.cls-10,.cls-11{isolation:isolate;}</style></defs><g><path class="cls-8" d="M44.47,20.14c.03,1.47-.3,2.96-.99,4.26-.85,1.86-2.4,3.39-4.21,4.33-2.09,1.1-4.61,1.41-6.9,.76-2.73-.7-5.14-2.66-6.26-5.25-.87-1.74-1.11-3.78-.79-5.69,.05-.6,.25-1.17,.44-1.73,1.12-3.22,4.1-5.71,7.46-6.22,2.65-.5,5.48,.27,7.58,1.93,.27,.22,.56,.43,.76,.71,.23,.18,.43,.39,.61,.61,1.47,1.74,2.34,4.01,2.29,6.29h0Z"/><path class="cls-4" d="M42.74,18.25c-1.09-2.32-3.15-4.2-5.6-4.99-2.16-.76-4.58-.62-6.7,.22,.19-.45,.42-.87,.62-1.31,.65-.61,1.45-1.03,2.17-1.56,2.65-.5,5.48,.27,7.58,1.93,.27,.22,.56,.43,.76,.71,.8,1.54,1.25,3.27,1.16,5h0Z"/><path class="cls-1" d="M33.23,10.61c-.72,.52-1.52,.94-2.17,1.56-.63,.48-1.07,1.15-1.55,1.77-1.86,1.02-3.33,2.69-4.19,4.63,.05-.6,.25-1.17,.44-1.73,1.12-3.22,4.1-5.71,7.46-6.22h0Z"/><path class="cls-5" d="M43.59,23.07c.15-1.19-.06-2.4-.37-3.56-.09-.35-.27-.66-.49-.95,0-.1,0-.2,0-.31,.09-1.74-.36-3.47-1.16-5,.23,.18,.43,.39,.61,.61,1.47,1.74,2.34,4.01,2.29,6.29,.03,1.47-.3,2.96-.99,4.26,.02-.44,.05-.89,.1-1.33h0Z"/><g><path class="cls-9" d="M31.11,26.43c-.68,.24-1.39,.05-2.07-.07-1.13-.44-2.06-1.27-2.92-2.11-.87-1.74-1.11-3.78-.79-5.69,.85-1.94,2.32-3.61,4.19-4.63-1,1.52-1.61,3.33-1.62,5.16-.09,2.76,1.15,5.51,3.21,7.34h0Z"/><path class="cls-6" d="M29.88,15.65c.74,0,1.48,0,2.23,0,.15,1.08,.38,2.17,.87,3.15,.24-.51,.49-1.02,.61-1.57,.18,.39,.36,.78,.58,1.16-.13-.92-.45-1.8-.56-2.73,.75-.02,1.5,0,2.25,0,.1,1.09,.39,2.15,.84,3.15,.5-.98,.75-2.06,.87-3.15,.74,0,1.48,0,2.23,0-.3,2.42-1.24,4.71-2.33,6.87-.5,0-.99,0-1.49,0-.42-.8-.81-1.62-1.15-2.46-.28,.86-.64,1.7-1.13,2.46-.49,0-.97,0-1.46,0-1.11-2.15-2.06-4.44-2.35-6.87h0Z"/></g><path class="cls-2" d="M43.59,23.07c-.06,.44-.08,.89-.1,1.33-.85,1.86-2.4,3.39-4.21,4.33-1.27,.02-2.56,.18-3.81-.13-1.03-.25-2.08-.57-2.94-1.22,4.33,.38,8.63-2.68,9.82-6.84,.18-.65,.33-1.32,.39-1.99,.22,.29,.4,.6,.49,.95,.31,1.15,.51,2.36,.37,3.56h0Z"/><path class="cls-5" d="M39.28,28.73c-2.09,1.1-4.61,1.41-6.9,.76-2.73-.7-5.14-2.66-6.26-5.25,.86,.84,1.78,1.67,2.92,2.11,1.08,.56,2.28,.89,3.49,1.02,.85,.65,1.91,.97,2.94,1.22,1.25,.31,2.54,.15,3.81,.13h0Z"/><g class="cls-11" transform="translate(4284 3424.02)"><text class="cls-10" transform="translate(31.02 25.35)"><tspan x="0" y="0">MA</tspan></text><text class="cls-10" transform="translate(35.55 25.35)"><tspan x="0" y="0">R</tspan></text><text class="cls-10" transform="translate(37.29 25.35)"><tspan x="0" y="0">T</tspan></text></g></g><path class="cls-7" d="M5.4,10.83l1.65,7.77c.24,1.06,.44,2.09,.61,3.09,.17,1,.31,2.03,.43,3.12h.06c.16-1.08,.33-2.14,.53-3.16,.2-1.02,.4-2.04,.62-3.04l1.77-7.77h4.82l1.8,7.77c.24,1,.44,2.01,.62,3.03,.18,1.01,.34,2.07,.5,3.18h.06c.14-1.1,.31-2.17,.5-3.21,.2-1.04,.39-2.03,.59-3l1.6-7.77h4.52l-4.52,18.61h-4.96l-1.86-7.92c-.24-1-.46-2.02-.68-3.06-.22-1.03-.42-2.08-.62-3.15h-.06c-.18,1.06-.37,2.11-.59,3.13-.22,1.02-.43,2.04-.65,3.04l-1.8,7.95H5.43L.82,10.83H5.4Z"/><path class="cls-3" d="M46.32,10.83h5.61l2.01,6.53c.12,.39,.26,.85,.41,1.37,.16,.52,.31,1.06,.46,1.63,.15,.56,.29,1.13,.41,1.7s.23,1.1,.31,1.6h.15c.08-.53,.19-1.11,.34-1.73,.15-.62,.3-1.22,.44-1.8s.29-1.12,.43-1.61c.14-.49,.25-.88,.33-1.15l1.95-6.53h5.61l1.33,18.61h-4.2l-.32-6.29c-.04-.59-.07-1.24-.09-1.94-.02-.7-.03-1.41-.04-2.14,0-.73-.02-1.45-.02-2.16v-1.95h-.09c-.14,.65-.29,1.32-.46,2.01-.17,.69-.34,1.37-.52,2.05-.18,.68-.35,1.34-.53,1.98-.18,.64-.36,1.23-.53,1.76l-2.07,6.68h-3.37l-2.16-6.65c-.18-.55-.35-1.15-.53-1.79-.18-.64-.35-1.3-.52-1.98-.17-.68-.33-1.36-.49-2.05-.16-.69-.3-1.36-.41-2.01h-.09c.02,.63,.02,1.31,.01,2.05-.01,.74-.03,1.48-.04,2.22-.02,.74-.04,1.45-.07,2.13-.03,.68-.05,1.28-.07,1.79l-.32,6.29h-4.14l1.27-18.61h0Z"/><path class="cls-3" d="M75.25,10.83h4.79l6.71,18.61h-4.76l-1.27-3.99h-6.26l-1.27,3.99h-4.7l6.77-18.61Zm.18,11.38h4.25l-.71-2.24c-.24-.73-.48-1.51-.72-2.33-.25-.83-.46-1.59-.64-2.28h-.06c-.2,.69-.42,1.44-.68,2.25-.26,.81-.5,1.6-.74,2.36l-.71,2.24h0Z"/><path class="cls-3" d="M89.22,10.83h7.39c1.06,0,2,.15,2.82,.46,.82,.3,1.5,.72,2.04,1.26,.54,.53,.95,1.15,1.23,1.86,.28,.71,.41,1.47,.41,2.28s-.11,1.44-.34,2.02c-.23,.58-.52,1.09-.87,1.52-.36,.43-.74,.79-1.15,1.06-.41,.28-.8,.49-1.15,.65l4.46,7.51h-5.17l-3.31-6.71h-1.86v6.71h-4.49V10.83h0Zm4.49,8.51h1.36c1.02,0,1.85-.21,2.48-.62,.63-.41,.94-1.08,.94-2.01,0-.77-.26-1.38-.77-1.83-.51-.45-1.25-.68-2.22-.68h-1.8v5.14h0Z"/><path class="cls-3" d="M119.18,10.83v3.49h-5.08v15.13h-4.49V14.32h-4.96v-3.49h14.54Z"/></svg>